<svg xmlns="http://www.w3.org/2000/svg" xmlns:xlink="http://www.w3.org/1999/xlink" width="2000" zoomAndPan="magnify" viewBox="0 0 1500 455.999984" height="608" preserveAspectRatio="xMidYMid meet" version="1.0"><defs><g/><clipPath id="0ee80ab376"><path d="M 1 1 L 928.398438 1 L 928.398438 271 L 1 271 Z M 1 1 " clip-rule="nonzero"/></clipPath><clipPath id="f7c732dac4"><rect x="0" width="929" y="0" height="272"/></clipPath><clipPath id="e59743b57b"><rect x="0" width="442" y="0" height="256"/></clipPath></defs><g transform="matrix(1, 0, 0, 1, 28, 19)"><g clip-path="url(#f7c732dac4)"><g clip-path="url(#0ee80ab376)"><path fill="#f26928" d="M 15.921875 1.789062 L 913.457031 1.789062 C 917.375 1.789062 921.132812 3.34375 923.902344 6.113281 C 926.675781 8.886719 928.230469 12.644531 928.230469 16.5625 L 928.230469 255.648438 C 928.230469 259.566406 926.675781 263.324219 923.902344 266.09375 C 921.132812 268.867188 917.375 270.421875 913.457031 270.421875 L 15.921875 270.421875 C 7.761719 270.421875 1.148438 263.808594 1.148438 255.648438 L 1.148438 16.5625 C 1.148438 8.402344 7.761719 1.789062 15.921875 1.789062 Z M 15.921875 1.789062 " fill-opacity="1" fill-rule="nonzero"/></g><g fill="#ffffff" fill-opacity="1"><g transform="translate(62.217485, 195.153772)"><g><path d="M 86.625 27.140625 C 77.03125 27.140625 69.0625 24.828125 62.71875 20.203125 C 56.382812 15.578125 52.128906 9.140625 49.953125 0.890625 C 41.648438 -0.296875 34.40625 -3.113281 28.21875 -7.5625 C 22.03125 -12.007812 17.207031 -18.160156 13.75 -26.015625 C 10.300781 -33.867188 8.578125 -43.363281 8.578125 -54.5 C 8.578125 -66.96875 10.738281 -77.390625 15.0625 -85.765625 C 19.382812 -94.140625 25.359375 -100.363281 32.984375 -104.4375 C 40.617188 -108.507812 49.425781 -110.546875 59.40625 -110.546875 C 69.394531 -110.546875 78.191406 -108.519531 85.796875 -104.46875 C 93.398438 -100.425781 99.351562 -94.203125 103.65625 -85.796875 C 107.957031 -77.398438 110.109375 -66.96875 110.109375 -54.5 C 110.109375 -38.195312 106.613281 -25.679688 99.625 -16.953125 C 92.644531 -8.234375 82.84375 -2.804688 70.21875 -0.671875 L 69.84375 0.8125 C 71.382812 3.445312 73.679688 5.472656 76.734375 6.890625 C 79.796875 8.304688 83.363281 9.015625 87.4375 9.015625 C 90.71875 9.015625 93.675781 8.59375 96.3125 7.75 L 97.8125 8.046875 L 100.859375 24.90625 C 99.265625 25.5 97.125 26.019531 94.4375 26.46875 C 91.757812 26.914062 89.15625 27.140625 86.625 27.140625 Z M 59.40625 -17.140625 C 68.65625 -17.140625 75.710938 -20.109375 80.578125 -26.046875 C 85.453125 -31.992188 87.890625 -41.476562 87.890625 -54.5 C 87.890625 -67.519531 85.453125 -77.007812 80.578125 -82.96875 C 75.710938 -88.9375 68.65625 -91.921875 59.40625 -91.921875 C 50.113281 -91.921875 43.019531 -88.9375 38.125 -82.96875 C 33.226562 -77.007812 30.78125 -67.519531 30.78125 -54.5 C 30.78125 -41.476562 33.226562 -31.992188 38.125 -26.046875 C 43.019531 -20.109375 50.113281 -17.140625 59.40625 -17.140625 Z M 59.40625 -17.140625 "/></g></g></g><g fill="#ffffff" fill-opacity="1"><g transform="translate(180.956869, 195.153772)"><g><path d="M 37.640625 1.5625 C 28.398438 1.5625 21.578125 -0.957031 17.171875 -6 C 12.773438 -11.039062 10.578125 -18.285156 10.578125 -27.734375 L 10.578125 -82.21875 L 31.234375 -82.21875 L 31.234375 -30.34375 C 31.234375 -25.320312 32.3125 -21.65625 34.46875 -19.34375 C 36.632812 -17.03125 39.976562 -15.875 44.5 -15.875 C 50.21875 -15.875 54.664062 -17.75 57.84375 -21.5 C 61.03125 -25.257812 62.625 -31.164062 62.625 -39.21875 L 62.625 -82.21875 L 83.265625 -82.21875 L 83.265625 0 L 63.4375 0 L 63.4375 -12.078125 L 61.875 -12.453125 C 59.238281 -7.734375 56.019531 -4.21875 52.21875 -1.90625 C 48.414062 0.40625 43.554688 1.5625 37.640625 1.5625 Z M 37.640625 1.5625 "/></g></g></g><g fill="#ffffff" fill-opacity="1"><g transform="translate(276.067638, 195.153772)"><g><path d="M 22.140625 -92.0625 C 18.410156 -92.0625 15.378906 -93.191406 13.046875 -95.453125 C 10.710938 -97.710938 9.546875 -100.632812 9.546875 -104.21875 C 9.546875 -107.75 10.710938 -110.644531 13.046875 -112.90625 C 15.378906 -115.164062 18.410156 -116.296875 22.140625 -116.296875 C 24.628906 -116.296875 26.84375 -115.769531 28.78125 -114.71875 C 30.71875 -113.675781 32.21875 -112.25 33.28125 -110.4375 C 34.351562 -108.625 34.890625 -106.550781 34.890625 -104.21875 C 34.890625 -101.882812 34.351562 -99.796875 33.28125 -97.953125 C 32.21875 -96.117188 30.71875 -94.675781 28.78125 -93.625 C 26.84375 -92.582031 24.628906 -92.0625 22.140625 -92.0625 Z M 11.859375 0 L 11.859375 -82.21875 L 32.5 -82.21875 L 32.5 0 Z M 11.859375 0 "/></g></g></g><g fill="#ffffff" fill-opacity="1"><g transform="translate(320.34334, 195.153772)"><g><path d="M 47.9375 1.5625 C 39.976562 1.5625 32.941406 -0.0859375 26.828125 -3.390625 C 20.722656 -6.691406 15.953125 -11.546875 12.515625 -17.953125 C 9.085938 -24.367188 7.375 -32.078125 7.375 -41.078125 C 7.375 -50.117188 9.085938 -57.84375 12.515625 -64.25 C 15.953125 -70.664062 20.703125 -75.523438 26.765625 -78.828125 C 32.828125 -82.140625 39.757812 -83.796875 47.5625 -83.796875 C 64.90625 -83.796875 76.015625 -77.507812 80.890625 -64.9375 L 66.71875 -54.796875 L 65.15625 -54.796875 C 63.46875 -58.671875 61.269531 -61.550781 58.5625 -63.4375 C 55.851562 -65.320312 52.1875 -66.265625 47.5625 -66.265625 C 41.59375 -66.265625 36.941406 -64.203125 33.609375 -60.078125 C 30.285156 -55.953125 28.625 -49.617188 28.625 -41.078125 C 28.625 -32.628906 30.3125 -26.328125 33.6875 -22.171875 C 37.070312 -18.023438 41.820312 -15.953125 47.9375 -15.953125 C 52.40625 -15.953125 56.191406 -17.15625 59.296875 -19.5625 C 62.410156 -21.976562 64.632812 -25.445312 65.96875 -29.96875 L 67.546875 -30.109375 L 82.21875 -22.0625 C 80.132812 -15.101562 76.269531 -9.425781 70.625 -5.03125 C 64.988281 -0.632812 57.425781 1.5625 47.9375 1.5625 Z M 47.9375 1.5625 "/></g></g></g><g fill="#ffffff" fill-opacity="1"><g transform="translate(405.093297, 195.153772)"><g><path d="M 11.859375 0 L 11.859375 -115.25 L 32.5 -115.25 L 32.5 -51.28125 L 34.515625 -51.28125 L 58.296875 -82.21875 L 79.25 -82.21875 L 79.25 -80.515625 L 51.28125 -44.4375 L 82.375 -1.859375 L 82.375 0 L 60.609375 0 L 34.515625 -34.671875 L 32.5 -34.671875 L 32.5 0 Z M 11.859375 0 "/></g></g></g><g fill="#ffffff" fill-opacity="1"><g transform="translate(487.607106, 195.153772)"><g/></g></g><g fill="#ffffff" fill-opacity="1"><g transform="translate(523.609066, 195.153772)"><g><path d="M 84.53125 -67.984375 L 84.53125 -108.984375 L 106 -108.984375 L 106 0 L 84.53125 0 L 84.53125 -49.640625 L 35.703125 -49.640625 L 35.703125 0 L 14.15625 0 L 14.15625 -108.984375 L 35.703125 -108.984375 L 35.703125 -67.984375 Z M 84.53125 -67.984375 "/></g></g></g><g fill="#ffffff" fill-opacity="1"><g transform="translate(643.839215, 195.153772)"><g><path d="M 81.25 -36.453125 L 28.40625 -36.453125 C 29 -29.296875 31.035156 -24.085938 34.515625 -20.828125 C 37.992188 -17.578125 42.738281 -15.953125 48.75 -15.953125 C 53.46875 -15.953125 57.289062 -16.832031 60.21875 -18.59375 C 63.15625 -20.363281 65.519531 -23.035156 67.3125 -26.609375 L 68.875 -26.609375 L 82.59375 -17.8125 C 79.914062 -12.050781 75.867188 -7.378906 70.453125 -3.796875 C 65.035156 -0.222656 57.800781 1.5625 48.75 1.5625 C 40.25 1.5625 32.90625 -0.0507812 26.71875 -3.28125 C 20.53125 -6.507812 15.757812 -11.316406 12.40625 -17.703125 C 9.050781 -24.085938 7.375 -31.878906 7.375 -41.078125 C 7.375 -50.421875 9.140625 -58.296875 12.671875 -64.703125 C 16.203125 -71.117188 20.972656 -75.90625 26.984375 -79.0625 C 32.992188 -82.21875 39.753906 -83.796875 47.265625 -83.796875 C 58.890625 -83.796875 67.796875 -80.710938 73.984375 -74.546875 C 80.171875 -68.378906 83.265625 -59.332031 83.265625 -47.40625 C 83.265625 -43.082031 83.117188 -39.726562 82.828125 -37.34375 Z M 63.515625 -49.796875 C 63.316406 -56.054688 61.863281 -60.613281 59.15625 -63.46875 C 56.445312 -66.332031 52.484375 -67.765625 47.265625 -67.765625 C 36.828125 -67.765625 30.6875 -61.773438 28.84375 -49.796875 Z M 63.515625 -49.796875 "/></g></g></g><g fill="#ffffff" fill-opacity="1"><g transform="translate(733.210541, 195.153772)"><g><path d="M 32.0625 1.5625 C 26.789062 1.5625 22.21875 0.59375 18.34375 -1.34375 C 14.46875 -3.28125 11.484375 -6.125 9.390625 -9.875 C 7.304688 -13.625 6.265625 -18.132812 6.265625 -23.40625 C 6.265625 -28.28125 7.304688 -32.367188 9.390625 -35.671875 C 11.484375 -38.972656 14.710938 -41.679688 19.078125 -43.796875 C 23.453125 -45.910156 29.171875 -47.535156 36.234375 -48.671875 C 41.148438 -49.472656 44.882812 -50.34375 47.4375 -51.28125 C 50 -52.226562 51.726562 -53.296875 52.625 -54.484375 C 53.519531 -55.679688 53.96875 -57.203125 53.96875 -59.046875 C 53.96875 -61.671875 53.046875 -63.679688 51.203125 -65.078125 C 49.367188 -66.472656 46.316406 -67.171875 42.046875 -67.171875 C 37.472656 -67.171875 33.125 -66.148438 29 -64.109375 C 24.875 -62.066406 21.296875 -59.382812 18.265625 -56.0625 L 16.765625 -56.0625 L 8.125 -69.109375 C 12.300781 -73.722656 17.394531 -77.320312 23.40625 -79.90625 C 29.414062 -82.5 35.976562 -83.796875 43.09375 -83.796875 C 53.96875 -83.796875 61.84375 -81.484375 66.71875 -76.859375 C 71.59375 -72.234375 74.03125 -65.671875 74.03125 -57.171875 L 74.03125 -21.46875 C 74.03125 -17.789062 75.644531 -15.953125 78.875 -15.953125 C 80.113281 -15.953125 81.328125 -16.175781 82.515625 -16.625 L 83.5625 -16.328125 L 85.0625 -1.9375 C 83.914062 -1.1875 82.320312 -0.578125 80.28125 -0.109375 C 78.25 0.359375 76.015625 0.59375 73.578125 0.59375 C 68.660156 0.59375 64.820312 -0.347656 62.0625 -2.234375 C 59.300781 -4.117188 57.328125 -7.078125 56.140625 -11.109375 L 54.5625 -11.25 C 50.539062 -2.707031 43.039062 1.5625 32.0625 1.5625 Z M 38.609375 -13.859375 C 43.378906 -13.859375 47.191406 -15.460938 50.046875 -18.671875 C 52.910156 -21.878906 54.34375 -26.34375 54.34375 -32.0625 L 54.34375 -40.40625 L 52.921875 -40.703125 C 51.679688 -39.710938 50.054688 -38.878906 48.046875 -38.203125 C 46.035156 -37.535156 43.140625 -36.878906 39.359375 -36.234375 C 34.890625 -35.484375 31.671875 -34.203125 29.703125 -32.390625 C 27.742188 -30.578125 26.765625 -28.003906 26.765625 -24.671875 C 26.765625 -21.140625 27.804688 -18.453125 29.890625 -16.609375 C 31.984375 -14.773438 34.890625 -13.859375 38.609375 -13.859375 Z M 38.609375 -13.859375 "/></g></g></g><g fill="#ffffff" fill-opacity="1"><g transform="translate(819.89849, 195.153772)"><g><path d="M 34.140625 1.5625 C 26.734375 1.5625 21.078125 -0.4375 17.171875 -4.4375 C 13.273438 -8.4375 11.328125 -14.507812 11.328125 -22.65625 L 11.328125 -115.25 L 31.984375 -115.25 L 31.984375 -23.484375 C 31.984375 -18.460938 34.070312 -15.953125 38.25 -15.953125 C 39.4375 -15.953125 40.703125 -16.148438 42.046875 -16.546875 L 43.09375 -16.25 L 44.953125 -0.375 C 43.804688 0.21875 42.289062 0.6875 40.40625 1.03125 C 38.519531 1.382812 36.429688 1.5625 34.140625 1.5625 Z M 34.140625 1.5625 "/></g></g></g></g></g><g fill="#000000" fill-opacity="1"><g transform="translate(304.411, 414.227574)"><g><path d="M 54.84375 -71.78125 L 54.84375 -59.890625 L 23.515625 -59.890625 L 23.515625 -40.890625 L 51.9375 -40.890625 L 51.9375 -29.15625 L 23.515625 -29.15625 L 23.515625 0 L 9.328125 0 L 9.328125 -71.78125 Z M 54.84375 -71.78125 "/></g></g></g><g fill="#000000" fill-opacity="1"><g transform="translate(362.219922, 414.227574)"><g><path d="M 31.46875 1.03125 C 26.164062 1.03125 21.507812 -0.0546875 17.5 -2.234375 C 13.488281 -4.410156 10.378906 -7.597656 8.171875 -11.796875 C 5.960938 -16.003906 4.859375 -21.085938 4.859375 -27.046875 C 4.859375 -33.003906 5.960938 -38.09375 8.171875 -42.3125 C 10.378906 -46.539062 13.488281 -49.742188 17.5 -51.921875 C 21.507812 -54.097656 26.164062 -55.1875 31.46875 -55.1875 C 36.769531 -55.1875 41.425781 -54.097656 45.4375 -51.921875 C 49.445312 -49.742188 52.5625 -46.539062 54.78125 -42.3125 C 57.007812 -38.09375 58.125 -33.003906 58.125 -27.046875 C 58.125 -21.085938 57.007812 -16.003906 54.78125 -11.796875 C 52.5625 -7.597656 49.445312 -4.410156 45.4375 -2.234375 C 41.425781 -0.0546875 36.769531 1.03125 31.46875 1.03125 Z M 31.46875 -10.5 C 39.882812 -10.5 44.09375 -16.015625 44.09375 -27.046875 C 44.09375 -32.773438 43.007812 -36.972656 40.84375 -39.640625 C 38.6875 -42.304688 35.5625 -43.640625 31.46875 -43.640625 C 23.0625 -43.640625 18.859375 -38.109375 18.859375 -27.046875 C 18.859375 -16.015625 23.0625 -10.5 31.46875 -10.5 Z M 31.46875 -10.5 "/></g></g></g><g fill="#000000" fill-opacity="1"><g transform="translate(426.459713, 414.227574)"><g><path d="M 24.796875 1.03125 C 18.703125 1.03125 14.207031 -0.628906 11.3125 -3.953125 C 8.414062 -7.273438 6.96875 -12.046875 6.96875 -18.265625 L 6.96875 -54.15625 L 20.578125 -54.15625 L 20.578125 -19.984375 C 20.578125 -16.671875 21.285156 -14.253906 22.703125 -12.734375 C 24.128906 -11.210938 26.332031 -10.453125 29.3125 -10.453125 C 33.070312 -10.453125 36 -11.6875 38.09375 -14.15625 C 40.1875 -16.632812 41.234375 -20.523438 41.234375 -25.828125 L 41.234375 -54.15625 L 54.84375 -54.15625 L 54.84375 0 L 41.78125 0 L 41.78125 -7.953125 L 40.75 -8.203125 C 39.007812 -5.085938 36.890625 -2.769531 34.390625 -1.25 C 31.890625 0.269531 28.691406 1.03125 24.796875 1.03125 Z M 24.796875 1.03125 "/></g></g></g><g fill="#000000" fill-opacity="1"><g transform="translate(490.404966, 414.227574)"><g><path d="M 7.8125 0 L 7.8125 -54.15625 L 20.859375 -54.15625 L 20.859375 -46.203125 L 21.890625 -45.953125 C 25.265625 -52.109375 30.734375 -55.1875 38.296875 -55.1875 C 44.546875 -55.1875 49.132812 -53.484375 52.0625 -50.078125 C 54.988281 -46.671875 56.453125 -41.710938 56.453125 -35.203125 L 56.453125 0 L 42.859375 0 L 42.859375 -33.53125 C 42.859375 -37.132812 42.140625 -39.726562 40.703125 -41.3125 C 39.265625 -42.894531 36.957031 -43.6875 33.78125 -43.6875 C 29.882812 -43.6875 26.847656 -42.425781 24.671875 -39.90625 C 22.492188 -37.394531 21.40625 -33.4375 21.40625 -28.03125 L 21.40625 0 Z M 7.8125 0 "/></g></g></g><g fill="#000000" fill-opacity="1"><g transform="translate(555.135652, 414.227574)"><g><path d="M 26.75 1.03125 C 22.46875 1.03125 18.679688 -0.00390625 15.390625 -2.078125 C 12.097656 -4.160156 9.519531 -7.304688 7.65625 -11.515625 C 5.789062 -15.722656 4.859375 -20.898438 4.859375 -27.046875 C 4.859375 -33.234375 5.816406 -38.429688 7.734375 -42.640625 C 9.648438 -46.847656 12.300781 -49.988281 15.6875 -52.0625 C 19.070312 -54.144531 22.988281 -55.1875 27.4375 -55.1875 C 30.8125 -55.1875 33.734375 -54.601562 36.203125 -53.4375 C 38.679688 -52.28125 40.769531 -50.472656 42.46875 -48.015625 L 43.5 -48.265625 L 43.5 -75.90625 L 57.09375 -75.90625 L 57.09375 0 L 43.5 0 L 43.5 -7.015625 L 42.46875 -7.21875 C 40.957031 -4.664062 38.894531 -2.648438 36.28125 -1.171875 C 33.664062 0.296875 30.488281 1.03125 26.75 1.03125 Z M 31.171875 -10.5 C 35.003906 -10.5 38.03125 -11.863281 40.25 -14.59375 C 42.476562 -17.332031 43.59375 -21.484375 43.59375 -27.046875 C 43.59375 -32.609375 42.476562 -36.765625 40.25 -39.515625 C 38.03125 -42.265625 35.003906 -43.640625 31.171875 -43.640625 C 27.179688 -43.640625 24.128906 -42.304688 22.015625 -39.640625 C 19.910156 -36.972656 18.859375 -32.773438 18.859375 -27.046875 C 18.859375 -21.359375 19.910156 -17.175781 22.015625 -14.5 C 24.128906 -11.832031 27.179688 -10.5 31.171875 -10.5 Z M 31.171875 -10.5 "/></g></g></g><g fill="#000000" fill-opacity="1"><g transform="translate(621.339031, 414.227574)"><g><path d="M 21.109375 1.03125 C 17.640625 1.03125 14.628906 0.394531 12.078125 -0.875 C 9.523438 -2.15625 7.5625 -4.03125 6.1875 -6.5 C 4.8125 -8.976562 4.125 -11.953125 4.125 -15.421875 C 4.125 -18.628906 4.8125 -21.316406 6.1875 -23.484375 C 7.5625 -25.660156 9.6875 -27.445312 12.5625 -28.84375 C 15.445312 -30.238281 19.210938 -31.3125 23.859375 -32.0625 C 27.097656 -32.582031 29.5625 -33.148438 31.25 -33.765625 C 32.9375 -34.390625 34.070312 -35.09375 34.65625 -35.875 C 35.25 -36.664062 35.546875 -37.671875 35.546875 -38.890625 C 35.546875 -40.617188 34.9375 -41.941406 33.71875 -42.859375 C 32.507812 -43.773438 30.5 -44.234375 27.6875 -44.234375 C 24.675781 -44.234375 21.8125 -43.5625 19.09375 -42.21875 C 16.375 -40.875 14.019531 -39.109375 12.03125 -36.921875 L 11.046875 -36.921875 L 5.34375 -45.515625 C 8.09375 -48.554688 11.445312 -50.925781 15.40625 -52.625 C 19.375 -54.332031 23.695312 -55.1875 28.375 -55.1875 C 35.539062 -55.1875 40.726562 -53.660156 43.9375 -50.609375 C 47.144531 -47.566406 48.75 -43.25 48.75 -37.65625 L 48.75 -14.140625 C 48.75 -11.710938 49.8125 -10.5 51.9375 -10.5 C 52.757812 -10.5 53.5625 -10.648438 54.34375 -10.953125 L 55.03125 -10.75 L 56.015625 -1.28125 C 55.265625 -0.789062 54.21875 -0.390625 52.875 -0.078125 C 51.53125 0.234375 50.054688 0.390625 48.453125 0.390625 C 45.210938 0.390625 42.679688 -0.226562 40.859375 -1.46875 C 39.046875 -2.71875 37.75 -4.664062 36.96875 -7.3125 L 35.9375 -7.40625 C 33.289062 -1.78125 28.347656 1.03125 21.109375 1.03125 Z M 25.4375 -9.125 C 28.570312 -9.125 31.082031 -10.179688 32.96875 -12.296875 C 34.851562 -14.410156 35.796875 -17.347656 35.796875 -21.109375 L 35.796875 -26.609375 L 34.859375 -26.8125 C 34.035156 -26.15625 32.960938 -25.601562 31.640625 -25.15625 C 30.316406 -24.71875 28.410156 -24.285156 25.921875 -23.859375 C 22.972656 -23.367188 20.851562 -22.523438 19.5625 -21.328125 C 18.269531 -20.140625 17.625 -18.445312 17.625 -16.25 C 17.625 -13.925781 18.3125 -12.15625 19.6875 -10.9375 C 21.0625 -9.726562 22.976562 -9.125 25.4375 -9.125 Z M 25.4375 -9.125 "/></g></g></g><g fill="#000000" fill-opacity="1"><g transform="translate(679.09896, 414.227574)"><g><path d="M 37.359375 -12.90625 L 40.890625 -2.84375 C 39.421875 -1.632812 37.570312 -0.6875 35.34375 0 C 33.125 0.6875 30.601562 1.03125 27.78125 1.03125 C 21.925781 1.03125 17.476562 -0.5625 14.4375 -3.75 C 11.394531 -6.945312 9.875 -11.585938 9.875 -17.671875 L 9.875 -43.40625 L 1.625 -43.40625 L 1.625 -54.203125 L 9.875 -54.203125 L 9.875 -64.75 L 23.46875 -66.96875 L 23.46875 -54.203125 L 38.828125 -54.203125 L 38.828125 -43.40625 L 23.46875 -43.40625 L 23.46875 -18.65625 C 23.46875 -15.96875 24.023438 -14.007812 25.140625 -12.78125 C 26.253906 -11.5625 27.875 -10.953125 30 -10.953125 C 32.414062 -10.953125 34.523438 -11.601562 36.328125 -12.90625 Z M 37.359375 -12.90625 "/></g></g></g><g fill="#000000" fill-opacity="1"><g transform="translate(722.475726, 414.227574)"><g><path d="M 14.578125 -60.625 C 12.128906 -60.625 10.132812 -61.367188 8.59375 -62.859375 C 7.050781 -64.347656 6.28125 -66.273438 6.28125 -68.640625 C 6.28125 -70.960938 7.050781 -72.867188 8.59375 -74.359375 C 10.132812 -75.847656 12.128906 -76.59375 14.578125 -76.59375 C 16.210938 -76.59375 17.664062 -76.25 18.9375 -75.5625 C 20.21875 -74.875 21.207031 -73.929688 21.90625 -72.734375 C 22.613281 -71.535156 22.96875 -70.171875 22.96875 -68.640625 C 22.96875 -67.097656 22.613281 -65.71875 21.90625 -64.5 C 21.207031 -63.289062 20.21875 -62.34375 18.9375 -61.65625 C 17.664062 -60.96875 16.210938 -60.625 14.578125 -60.625 Z M 7.8125 0 L 7.8125 -54.15625 L 21.40625 -54.15625 L 21.40625 0 Z M 7.8125 0 "/></g></g></g><g fill="#000000" fill-opacity="1"><g transform="translate(752.942002, 414.227574)"><g><path d="M 31.46875 1.03125 C 26.164062 1.03125 21.507812 -0.0546875 17.5 -2.234375 C 13.488281 -4.410156 10.378906 -7.597656 8.171875 -11.796875 C 5.960938 -16.003906 4.859375 -21.085938 4.859375 -27.046875 C 4.859375 -33.003906 5.960938 -38.09375 8.171875 -42.3125 C 10.378906 -46.539062 13.488281 -49.742188 17.5 -51.921875 C 21.507812 -54.097656 26.164062 -55.1875 31.46875 -55.1875 C 36.769531 -55.1875 41.425781 -54.097656 45.4375 -51.921875 C 49.445312 -49.742188 52.5625 -46.539062 54.78125 -42.3125 C 57.007812 -38.09375 58.125 -33.003906 58.125 -27.046875 C 58.125 -21.085938 57.007812 -16.003906 54.78125 -11.796875 C 52.5625 -7.597656 49.445312 -4.410156 45.4375 -2.234375 C 41.425781 -0.0546875 36.769531 1.03125 31.46875 1.03125 Z M 31.46875 -10.5 C 39.882812 -10.5 44.09375 -16.015625 44.09375 -27.046875 C 44.09375 -32.773438 43.007812 -36.972656 40.84375 -39.640625 C 38.6875 -42.304688 35.5625 -43.640625 31.46875 -43.640625 C 23.0625 -43.640625 18.859375 -38.109375 18.859375 -27.046875 C 18.859375 -16.015625 23.0625 -10.5 31.46875 -10.5 Z M 31.46875 -10.5 "/></g></g></g><g fill="#000000" fill-opacity="1"><g transform="translate(817.181804, 414.227574)"><g><path d="M 7.8125 0 L 7.8125 -54.15625 L 20.859375 -54.15625 L 20.859375 -46.203125 L 21.890625 -45.953125 C 25.265625 -52.109375 30.734375 -55.1875 38.296875 -55.1875 C 44.546875 -55.1875 49.132812 -53.484375 52.0625 -50.078125 C 54.988281 -46.671875 56.453125 -41.710938 56.453125 -35.203125 L 56.453125 0 L 42.859375 0 L 42.859375 -33.53125 C 42.859375 -37.132812 42.140625 -39.726562 40.703125 -41.3125 C 39.265625 -42.894531 36.957031 -43.6875 33.78125 -43.6875 C 29.882812 -43.6875 26.847656 -42.425781 24.671875 -39.90625 C 22.492188 -37.394531 21.40625 -33.4375 21.40625 -28.03125 L 21.40625 0 Z M 7.8125 0 "/></g></g></g><path stroke-linecap="butt" transform="matrix(0, -0.75, 0.75, 0, 1002.683037, 289.325778)" fill="none" stroke-linejoin="miter" d="M 0.00207954 2.500742 L 357.934399 2.500742 " stroke="#000000" stroke-width="5" stroke-opacity="1" stroke-miterlimit="4"/><g transform="matrix(1, 0, 0, 1, 1037, 27)"><g clip-path="url(#e59743b57b)"><g fill="#000000" fill-opacity="1"><g transform="translate(0.960454, 111.106225)"><g><path d="M 26.703125 1.0625 C 22.679688 1.0625 19.003906 0.40625 15.671875 -0.90625 C 12.347656 -2.226562 9.53125 -3.960938 7.21875 -6.109375 C 4.90625 -8.253906 3.140625 -10.609375 1.921875 -13.171875 L 7.796875 -18.703125 L 9.078125 -18.703125 C 11.171875 -14.648438 13.734375 -11.648438 16.765625 -9.703125 C 19.804688 -7.765625 23.507812 -6.796875 27.875 -6.796875 C 33.414062 -6.796875 37.789062 -7.914062 41 -10.15625 C 44.207031 -12.40625 46.195312 -15.367188 46.96875 -19.046875 C 47.207031 -20.097656 47.328125 -21.148438 47.328125 -22.203125 C 47.328125 -25.003906 46.378906 -27.410156 44.484375 -29.421875 C 42.597656 -31.429688 39.742188 -32.925781 35.921875 -33.90625 L 27.71875 -36.03125 C 22.957031 -37.28125 19.332031 -39.40625 16.84375 -42.40625 C 14.363281 -45.414062 13.125 -49.050781 13.125 -53.3125 C 13.125 -54.863281 13.3125 -56.535156 13.6875 -58.328125 C 14.394531 -61.597656 15.84375 -64.492188 18.03125 -67.015625 C 20.226562 -69.535156 23.257812 -71.519531 27.125 -72.96875 C 31 -74.425781 35.691406 -75.15625 41.203125 -75.15625 C 46.023438 -75.15625 50.335938 -74.265625 54.140625 -72.484375 C 57.941406 -70.710938 60.804688 -68.253906 62.734375 -65.109375 L 57.265625 -59.390625 L 56 -59.390625 C 52.6875 -64.828125 47.296875 -67.546875 39.828125 -67.546875 C 34.628906 -67.546875 30.550781 -66.648438 27.59375 -64.859375 C 24.632812 -63.066406 22.800781 -60.453125 22.09375 -57.015625 C 21.851562 -55.960938 21.734375 -54.894531 21.734375 -53.8125 C 21.734375 -48.613281 25.097656 -45.171875 31.828125 -43.484375 L 39.265625 -41.609375 C 44.941406 -40.179688 49.207031 -37.9375 52.0625 -34.875 C 54.914062 -31.820312 56.34375 -28.066406 56.34375 -23.609375 C 56.34375 -21.859375 56.160156 -20.140625 55.796875 -18.453125 C 54.503906 -12.328125 51.441406 -7.539062 46.609375 -4.09375 C 41.785156 -0.65625 35.148438 1.0625 26.703125 1.0625 Z M 26.703125 1.0625 "/></g></g></g><g fill="#000000" fill-opacity="1"><g transform="translate(64.447769, 111.106225)"><g><path d="M 54.46875 -39.21875 C 53.53125 -34.289062 50.78125 -30.3125 46.21875 -27.28125 C 41.65625 -24.257812 35.148438 -22.75 26.703125 -22.75 C 22.710938 -22.75 18.523438 -23.085938 14.140625 -23.765625 C 14.003906 -22.722656 13.9375 -21.59375 13.9375 -20.375 C 13.9375 -15.8125 15.097656 -12.328125 17.421875 -9.921875 C 19.753906 -7.523438 23.132812 -6.328125 27.5625 -6.328125 C 31.476562 -6.328125 34.742188 -7.0625 37.359375 -8.53125 C 39.984375 -10.007812 42.328125 -12.300781 44.390625 -15.40625 L 45.453125 -15.40625 L 50.578125 -11.953125 C 48.171875 -7.628906 44.972656 -4.378906 40.984375 -2.203125 C 37.003906 -0.0234375 32.007812 1.0625 26 1.0625 C 21.945312 1.0625 18.378906 0.132812 15.296875 -1.71875 C 12.222656 -3.582031 9.847656 -6.226562 8.171875 -9.65625 C 6.503906 -13.082031 5.671875 -17.078125 5.671875 -21.640625 C 5.671875 -24.441406 5.992188 -27.328125 6.640625 -30.296875 C 7.859375 -35.972656 9.875 -40.8125 12.6875 -44.8125 C 15.507812 -48.820312 18.945312 -51.847656 23 -53.890625 C 27.0625 -55.929688 31.539062 -56.953125 36.4375 -56.953125 C 40.457031 -56.953125 43.84375 -56.273438 46.59375 -54.921875 C 49.34375 -53.578125 51.394531 -51.78125 52.75 -49.53125 C 54.101562 -47.289062 54.78125 -44.851562 54.78125 -42.21875 C 54.78125 -41.238281 54.675781 -40.238281 54.46875 -39.21875 Z M 34.96875 -49.96875 C 30.03125 -49.96875 25.972656 -48.445312 22.796875 -45.40625 C 19.628906 -42.363281 17.179688 -37.484375 15.453125 -30.765625 C 19.410156 -30.359375 22.925781 -30.15625 26 -30.15625 C 32.613281 -30.15625 37.523438 -31.003906 40.734375 -32.703125 C 43.953125 -34.410156 45.847656 -36.851562 46.421875 -40.03125 C 46.515625 -40.632812 46.5625 -41.226562 46.5625 -41.8125 C 46.5625 -44.269531 45.539062 -46.242188 43.5 -47.734375 C 41.457031 -49.222656 38.613281 -49.96875 34.96875 -49.96875 Z M 34.96875 -49.96875 "/></g></g></g><g fill="#000000" fill-opacity="1"><g transform="translate(124.033622, 111.106225)"><g><path d="M 26.140625 1.0625 C 22.023438 1.0625 18.410156 0.160156 15.296875 -1.640625 C 12.191406 -3.453125 9.773438 -6.019531 8.046875 -9.34375 C 6.328125 -12.675781 5.46875 -16.554688 5.46875 -20.984375 C 5.46875 -23.648438 5.753906 -26.300781 6.328125 -28.9375 C 8.253906 -37.925781 11.9375 -44.84375 17.375 -49.6875 C 22.820312 -54.53125 29.785156 -56.953125 38.265625 -56.953125 C 43.660156 -56.953125 47.851562 -55.851562 50.84375 -53.65625 C 53.84375 -51.46875 56 -48.476562 57.3125 -44.6875 L 51.1875 -40.796875 L 50.171875 -40.796875 C 48.953125 -43.765625 47.285156 -45.96875 45.171875 -47.40625 C 43.066406 -48.84375 40.238281 -49.5625 36.6875 -49.5625 C 33.269531 -49.5625 30.082031 -48.765625 27.125 -47.171875 C 24.175781 -45.585938 21.644531 -43.25 19.53125 -40.15625 C 17.425781 -37.0625 15.914062 -33.320312 15 -28.9375 C 14.394531 -26 14.09375 -23.347656 14.09375 -20.984375 C 14.09375 -16.148438 15.289062 -12.5 17.6875 -10.03125 C 20.082031 -7.5625 23.425781 -6.328125 27.71875 -6.328125 C 31.4375 -6.328125 34.695312 -7.226562 37.5 -9.03125 C 40.300781 -10.84375 42.851562 -13.675781 45.15625 -17.53125 L 46.21875 -17.53125 L 51.28125 -14.09375 C 48.851562 -9.09375 45.648438 -5.316406 41.671875 -2.765625 C 37.703125 -0.210938 32.523438 1.0625 26.140625 1.0625 Z M 26.140625 1.0625 "/></g></g></g><g fill="#000000" fill-opacity="1"><g transform="translate(181.643421, 111.106225)"><g><path d="M 22.046875 1.0625 C 18.796875 1.0625 16.003906 0.410156 13.671875 -0.890625 C 11.347656 -2.191406 9.585938 -4.015625 8.390625 -6.359375 C 7.191406 -8.703125 6.59375 -11.429688 6.59375 -14.546875 C 6.59375 -16.296875 6.796875 -18.15625 7.203125 -20.125 L 14.796875 -55.890625 L 23.0625 -55.890625 L 15.203125 -18.84375 C 14.960938 -17.769531 14.84375 -16.65625 14.84375 -15.5 C 14.84375 -12.632812 15.710938 -10.351562 17.453125 -8.65625 C 19.191406 -6.96875 21.597656 -6.125 24.671875 -6.125 C 29.710938 -6.125 34.019531 -7.769531 37.59375 -11.0625 C 41.175781 -14.363281 43.765625 -19.75 45.359375 -27.21875 L 51.4375 -55.890625 L 59.6875 -55.890625 L 47.84375 0 L 40.03125 0 L 41.90625 -8.765625 L 40.890625 -9.015625 C 38.597656 -5.535156 36.003906 -2.984375 33.109375 -1.359375 C 30.222656 0.253906 26.535156 1.0625 22.046875 1.0625 Z M 22.046875 1.0625 "/></g></g></g><g fill="#000000" fill-opacity="1"><g transform="translate(245.130735, 111.106225)"><g><path d="M 3.796875 0 L 15.65625 -55.890625 L 23.515625 -55.890625 L 21.640625 -47.125 L 22.65625 -46.875 C 24.71875 -50.25 27.054688 -52.679688 29.671875 -54.171875 C 32.285156 -55.660156 35.519531 -56.40625 39.375 -56.40625 C 41.332031 -56.40625 42.953125 -56.234375 44.234375 -55.890625 C 45.523438 -55.554688 46.625 -55.035156 47.53125 -54.328125 L 44.140625 -47.078125 L 43.078125 -46.875 C 41.210938 -48.09375 38.945312 -48.703125 36.28125 -48.703125 C 27.0625 -48.703125 20.929688 -41.609375 17.890625 -27.421875 L 12.0625 0 Z M 3.796875 0 "/></g></g></g><g fill="#000000" fill-opacity="1"><g transform="translate(288.300077, 111.106225)"><g><path d="M 23.3125 -66.6875 C 21.550781 -66.6875 20.117188 -67.234375 19.015625 -68.328125 C 17.921875 -69.429688 17.375 -70.828125 17.375 -72.515625 C 17.375 -74.203125 17.921875 -75.59375 19.015625 -76.6875 C 20.117188 -77.789062 21.550781 -78.34375 23.3125 -78.34375 C 25.070312 -78.34375 26.5 -77.789062 27.59375 -76.6875 C 28.6875 -75.59375 29.234375 -74.203125 29.234375 -72.515625 C 29.234375 -70.828125 28.6875 -69.429688 27.59375 -68.328125 C 26.5 -67.234375 25.070312 -66.6875 23.3125 -66.6875 Z M 3.75 0 L 15.609375 -55.890625 L 23.875 -55.890625 L 12.015625 0 Z M 3.75 0 "/></g></g></g><g fill="#000000" fill-opacity="1"><g transform="translate(316.015599, 111.106225)"><g><path d="M 3.796875 0 L 15.65625 -55.890625 L 23.515625 -55.890625 L 21.640625 -47.125 L 22.65625 -46.875 C 26.8125 -53.59375 33.078125 -56.953125 41.453125 -56.953125 C 46.585938 -56.953125 50.585938 -55.609375 53.453125 -52.921875 C 56.328125 -50.242188 57.765625 -46.503906 57.765625 -41.703125 C 57.765625 -39.910156 57.5625 -38.003906 57.15625 -35.984375 L 49.5625 0 L 41.296875 0 L 48.90625 -35.78125 C 49.238281 -37.332031 49.40625 -38.800781 49.40625 -40.1875 C 49.40625 -43.320312 48.472656 -45.703125 46.609375 -47.328125 C 44.753906 -48.953125 41.988281 -49.765625 38.3125 -49.765625 C 33.445312 -49.765625 29.265625 -48.109375 25.765625 -44.796875 C 22.265625 -41.484375 19.722656 -36.113281 18.140625 -28.6875 L 12.0625 0 Z M 3.796875 0 "/></g></g></g><g fill="#000000" fill-opacity="1"><g transform="translate(380.364281, 111.106225)"><g><path d="M 17.78125 23.71875 C 13.050781 23.71875 9.03125 23.132812 5.71875 21.96875 C 2.414062 20.800781 -0.078125 19.160156 -1.765625 17.046875 C -3.460938 14.941406 -4.3125 12.484375 -4.3125 9.671875 C -4.3125 8.867188 -4.191406 7.84375 -3.953125 6.59375 C -3.378906 3.914062 -1.910156 1.675781 0.453125 -0.125 C 2.816406 -1.9375 5.859375 -3.242188 9.578125 -4.046875 L 9.828125 -5.125 C 8.609375 -5.925781 7.6875 -6.832031 7.0625 -7.84375 C 6.4375 -8.863281 6.125 -10.117188 6.125 -11.609375 C 6.125 -12.421875 6.226562 -13.332031 6.4375 -14.34375 C 7.175781 -18.15625 10.398438 -20.535156 16.109375 -21.484375 L 16.3125 -22.546875 C 12.195312 -25.015625 10.140625 -28.800781 10.140625 -33.90625 C 10.140625 -35.519531 10.34375 -37.289062 10.75 -39.21875 C 11.488281 -42.632812 12.878906 -45.675781 14.921875 -48.34375 C 16.960938 -51.007812 19.664062 -53.109375 23.03125 -54.640625 C 26.394531 -56.179688 30.335938 -56.953125 34.859375 -56.953125 C 39.523438 -56.953125 43.226562 -55.921875 45.96875 -53.859375 C 47.414062 -55.179688 48.59375 -56.582031 49.5 -58.0625 C 50.414062 -59.550781 51.160156 -61.257812 51.734375 -63.1875 L 52.953125 -63.84375 L 59.390625 -62.234375 C 58.441406 -59.023438 57.101562 -56.445312 55.375 -54.5 C 53.65625 -52.5625 51.429688 -51.117188 48.703125 -50.171875 L 48.5 -49.109375 C 50.519531 -47.179688 51.53125 -44.695312 51.53125 -41.65625 C 51.53125 -40.539062 51.363281 -39.140625 51.03125 -37.453125 C 50.289062 -33.929688 48.769531 -30.769531 46.46875 -27.96875 C 44.164062 -25.164062 41.304688 -22.960938 37.890625 -21.359375 C 34.484375 -19.753906 30.769531 -18.953125 26.75 -18.953125 C 26.28125 -18.953125 25.4375 -18.984375 24.21875 -19.046875 C 22.875 -19.117188 21.894531 -19.15625 21.28125 -19.15625 C 19.21875 -19.15625 17.546875 -18.613281 16.265625 -17.53125 C 14.984375 -16.445312 14.34375 -15.046875 14.34375 -13.328125 C 14.34375 -11.972656 14.890625 -10.914062 15.984375 -10.15625 C 17.085938 -9.394531 18.648438 -8.96875 20.671875 -8.875 L 32.78125 -8.203125 C 37.644531 -7.972656 41.328125 -6.816406 43.828125 -4.734375 C 46.328125 -2.660156 47.578125 0.164062 47.578125 3.75 C 47.578125 4.96875 47.425781 6.25 47.125 7.59375 C 46.382812 11.144531 45.007812 14.085938 43 16.421875 C 40.988281 18.753906 37.953125 20.550781 33.890625 21.8125 C 29.835938 23.082031 24.46875 23.71875 17.78125 23.71875 Z M 28.28125 -26.046875 C 32.226562 -26.046875 35.503906 -27.078125 38.109375 -29.140625 C 40.710938 -31.203125 42.398438 -34.085938 43.171875 -37.796875 C 43.441406 -39.148438 43.578125 -40.316406 43.578125 -41.296875 C 43.578125 -44.066406 42.707031 -46.1875 40.96875 -47.65625 C 39.226562 -49.125 36.6875 -49.859375 33.34375 -49.859375 C 29.351562 -49.859375 26.09375 -48.816406 23.5625 -46.734375 C 21.03125 -44.660156 19.34375 -41.679688 18.5 -37.796875 C 18.226562 -36.515625 18.09375 -35.398438 18.09375 -34.453125 C 18.09375 -31.753906 18.953125 -29.675781 20.671875 -28.21875 C 22.398438 -26.769531 24.9375 -26.046875 28.28125 -26.046875 Z M 17.78125 16.625 C 21.976562 16.625 25.585938 16.21875 28.609375 15.40625 C 31.628906 14.59375 33.972656 13.484375 35.640625 12.078125 C 37.316406 10.679688 38.34375 9.101562 38.71875 7.34375 C 38.882812 6.664062 38.96875 5.90625 38.96875 5.0625 C 38.96875 3.375 38.332031 2.09375 37.0625 1.21875 C 35.800781 0.34375 33.734375 -0.195312 30.859375 -0.40625 L 18.453125 -1.265625 C 18.140625 -1.296875 17.820312 -1.335938 17.5 -1.390625 C 17.1875 -1.441406 16.878906 -1.46875 16.578125 -1.46875 C 12.921875 -1.4375 10.117188 -0.675781 8.171875 0.8125 C 6.234375 2.300781 4.992188 4.328125 4.453125 6.890625 C 4.316406 7.429688 4.25 8.023438 4.25 8.671875 C 4.25 11.234375 5.472656 13.195312 7.921875 14.5625 C 10.378906 15.9375 13.664062 16.625 17.78125 16.625 Z M 17.78125 16.625 "/></g></g></g><g fill="#000000" fill-opacity="1"><g transform="translate(0.960454, 224.730212)"><g><path d="M 64.5625 -74.09375 L 63.03125 -66.890625 L 28.21875 -66.890625 L 22.5 -39.9375 L 53.8125 -39.9375 L 52.296875 -32.6875 L 20.984375 -32.6875 L 14.03125 0 L 5.328125 0 L 21.03125 -74.09375 Z M 64.5625 -74.09375 "/></g></g></g><g fill="#000000" fill-opacity="1"><g transform="translate(58.620873, 224.730212)"><g><path d="M 22.046875 1.0625 C 18.796875 1.0625 16.003906 0.410156 13.671875 -0.890625 C 11.347656 -2.191406 9.585938 -4.015625 8.390625 -6.359375 C 7.191406 -8.703125 6.59375 -11.429688 6.59375 -14.546875 C 6.59375 -16.296875 6.796875 -18.15625 7.203125 -20.125 L 14.796875 -55.890625 L 23.0625 -55.890625 L 15.203125 -18.84375 C 14.960938 -17.769531 14.84375 -16.65625 14.84375 -15.5 C 14.84375 -12.632812 15.710938 -10.351562 17.453125 -8.65625 C 19.191406 -6.96875 21.597656 -6.125 24.671875 -6.125 C 29.710938 -6.125 34.019531 -7.769531 37.59375 -11.0625 C 41.175781 -14.363281 43.765625 -19.75 45.359375 -27.21875 L 51.4375 -55.890625 L 59.6875 -55.890625 L 47.84375 0 L 40.03125 0 L 41.90625 -8.765625 L 40.890625 -9.015625 C 38.597656 -5.535156 36.003906 -2.984375 33.109375 -1.359375 C 30.222656 0.253906 26.535156 1.0625 22.046875 1.0625 Z M 22.046875 1.0625 "/></g></g></g><g fill="#000000" fill-opacity="1"><g transform="translate(122.108187, 224.730212)"><g><path d="M 25.03125 -49.15625 L 17.984375 -15.96875 C 17.753906 -14.8125 17.640625 -13.726562 17.640625 -12.71875 C 17.640625 -10.519531 18.226562 -8.90625 19.40625 -7.875 C 20.59375 -6.84375 22.234375 -6.328125 24.328125 -6.328125 C 27.328125 -6.328125 30.03125 -7.175781 32.4375 -8.875 L 33.5 -8.875 L 35.171875 -2.9375 C 32.023438 -0.269531 27.785156 1.0625 22.453125 1.0625 C 18.359375 1.0625 15.132812 -0.0507812 12.78125 -2.28125 C 10.4375 -4.507812 9.265625 -7.582031 9.265625 -11.5 C 9.265625 -13.019531 9.4375 -14.578125 9.78125 -16.171875 L 16.765625 -49.15625 L 7.046875 -49.15625 L 8.515625 -55.9375 L 18.25 -55.9375 L 20.71875 -67.75 L 29.296875 -69.125 L 26.5 -55.9375 L 44.484375 -55.9375 L 43.015625 -49.15625 Z M 25.03125 -49.15625 "/></g></g></g><g fill="#000000" fill-opacity="1"><g transform="translate(164.669511, 224.730212)"><g><path d="M 22.046875 1.0625 C 18.796875 1.0625 16.003906 0.410156 13.671875 -0.890625 C 11.347656 -2.191406 9.585938 -4.015625 8.390625 -6.359375 C 7.191406 -8.703125 6.59375 -11.429688 6.59375 -14.546875 C 6.59375 -16.296875 6.796875 -18.15625 7.203125 -20.125 L 14.796875 -55.890625 L 23.0625 -55.890625 L 15.203125 -18.84375 C 14.960938 -17.769531 14.84375 -16.65625 14.84375 -15.5 C 14.84375 -12.632812 15.710938 -10.351562 17.453125 -8.65625 C 19.191406 -6.96875 21.597656 -6.125 24.671875 -6.125 C 29.710938 -6.125 34.019531 -7.769531 37.59375 -11.0625 C 41.175781 -14.363281 43.765625 -19.75 45.359375 -27.21875 L 51.4375 -55.890625 L 59.6875 -55.890625 L 47.84375 0 L 40.03125 0 L 41.90625 -8.765625 L 40.890625 -9.015625 C 38.597656 -5.535156 36.003906 -2.984375 33.109375 -1.359375 C 30.222656 0.253906 26.535156 1.0625 22.046875 1.0625 Z M 22.046875 1.0625 "/></g></g></g><g fill="#000000" fill-opacity="1"><g transform="translate(228.156825, 224.730212)"><g><path d="M 3.796875 0 L 15.65625 -55.890625 L 23.515625 -55.890625 L 21.640625 -47.125 L 22.65625 -46.875 C 24.71875 -50.25 27.054688 -52.679688 29.671875 -54.171875 C 32.285156 -55.660156 35.519531 -56.40625 39.375 -56.40625 C 41.332031 -56.40625 42.953125 -56.234375 44.234375 -55.890625 C 45.523438 -55.554688 46.625 -55.035156 47.53125 -54.328125 L 44.140625 -47.078125 L 43.078125 -46.875 C 41.210938 -48.09375 38.945312 -48.703125 36.28125 -48.703125 C 27.0625 -48.703125 20.929688 -41.609375 17.890625 -27.421875 L 12.0625 0 Z M 3.796875 0 "/></g></g></g><g fill="#000000" fill-opacity="1"><g transform="translate(269.856727, 224.730212)"><g><path d="M 54.46875 -39.21875 C 53.53125 -34.289062 50.78125 -30.3125 46.21875 -27.28125 C 41.65625 -24.257812 35.148438 -22.75 26.703125 -22.75 C 22.710938 -22.75 18.523438 -23.085938 14.140625 -23.765625 C 14.003906 -22.722656 13.9375 -21.59375 13.9375 -20.375 C 13.9375 -15.8125 15.097656 -12.328125 17.421875 -9.921875 C 19.753906 -7.523438 23.132812 -6.328125 27.5625 -6.328125 C 31.476562 -6.328125 34.742188 -7.0625 37.359375 -8.53125 C 39.984375 -10.007812 42.328125 -12.300781 44.390625 -15.40625 L 45.453125 -15.40625 L 50.578125 -11.953125 C 48.171875 -7.628906 44.972656 -4.378906 40.984375 -2.203125 C 37.003906 -0.0234375 32.007812 1.0625 26 1.0625 C 21.945312 1.0625 18.378906 0.132812 15.296875 -1.71875 C 12.222656 -3.582031 9.847656 -6.226562 8.171875 -9.65625 C 6.503906 -13.082031 5.671875 -17.078125 5.671875 -21.640625 C 5.671875 -24.441406 5.992188 -27.328125 6.640625 -30.296875 C 7.859375 -35.972656 9.875 -40.8125 12.6875 -44.8125 C 15.507812 -48.820312 18.945312 -51.847656 23 -53.890625 C 27.0625 -55.929688 31.539062 -56.953125 36.4375 -56.953125 C 40.457031 -56.953125 43.84375 -56.273438 46.59375 -54.921875 C 49.34375 -53.578125 51.394531 -51.78125 52.75 -49.53125 C 54.101562 -47.289062 54.78125 -44.851562 54.78125 -42.21875 C 54.78125 -41.238281 54.675781 -40.238281 54.46875 -39.21875 Z M 34.96875 -49.96875 C 30.03125 -49.96875 25.972656 -48.445312 22.796875 -45.40625 C 19.628906 -42.363281 17.179688 -37.484375 15.453125 -30.765625 C 19.410156 -30.359375 22.925781 -30.15625 26 -30.15625 C 32.613281 -30.15625 37.523438 -31.003906 40.734375 -32.703125 C 43.953125 -34.410156 45.847656 -36.851562 46.421875 -40.03125 C 46.515625 -40.632812 46.5625 -41.226562 46.5625 -41.8125 C 46.5625 -44.269531 45.539062 -46.242188 43.5 -47.734375 C 41.457031 -49.222656 38.613281 -49.96875 34.96875 -49.96875 Z M 34.96875 -49.96875 "/></g></g></g><g fill="#000000" fill-opacity="1"><g transform="translate(329.442581, 224.730212)"><g><path d="M 19.3125 1.0625 C 16.132812 1.0625 13.207031 0.597656 10.53125 -0.328125 C 7.863281 -1.253906 5.617188 -2.53125 3.796875 -4.15625 C 1.972656 -5.78125 0.675781 -7.601562 -0.09375 -9.625 L 5.828125 -14.703125 L 6.890625 -14.703125 C 8.140625 -11.929688 9.894531 -9.84375 12.15625 -8.4375 C 14.425781 -7.03125 17.332031 -6.328125 20.875 -6.328125 C 25 -6.328125 28.3125 -7.128906 30.8125 -8.734375 C 33.3125 -10.335938 34.863281 -12.578125 35.46875 -15.453125 C 35.601562 -16.023438 35.671875 -16.6875 35.671875 -17.4375 C 35.671875 -20.8125 33.441406 -23.070312 28.984375 -24.21875 L 20.125 -26.453125 C 16.632812 -27.328125 13.867188 -28.910156 11.828125 -31.203125 C 9.785156 -33.503906 8.765625 -36.3125 8.765625 -39.625 C 8.765625 -40.8125 8.882812 -41.941406 9.125 -43.015625 C 9.695312 -45.785156 10.925781 -48.207031 12.8125 -50.28125 C 14.707031 -52.363281 17.234375 -53.992188 20.390625 -55.171875 C 23.554688 -56.359375 27.28125 -56.953125 31.5625 -56.953125 C 36.03125 -56.953125 39.554688 -56.25 42.140625 -54.84375 C 44.722656 -53.445312 46.957031 -51.429688 48.84375 -48.796875 L 43.21875 -44.234375 L 42.21875 -44.234375 C 40.894531 -46.296875 39.269531 -47.78125 37.34375 -48.6875 C 35.414062 -49.601562 33 -50.0625 30.09375 -50.0625 C 26.414062 -50.0625 23.453125 -49.398438 21.203125 -48.078125 C 18.960938 -46.765625 17.570312 -44.859375 17.03125 -42.359375 C 16.894531 -41.785156 16.828125 -41.160156 16.828125 -40.484375 C 16.828125 -38.828125 17.429688 -37.441406 18.640625 -36.328125 C 19.859375 -35.210938 21.800781 -34.285156 24.46875 -33.546875 L 32.078125 -31.515625 C 35.929688 -30.472656 38.878906 -28.816406 40.921875 -26.546875 C 42.960938 -24.285156 43.984375 -21.550781 43.984375 -18.34375 C 43.984375 -17.289062 43.847656 -16.09375 43.578125 -14.75 C 42.566406 -9.976562 40.054688 -6.148438 36.046875 -3.265625 C 32.046875 -0.378906 26.46875 1.0625 19.3125 1.0625 Z M 19.3125 1.0625 "/></g></g></g></g></g></svg>